<svg xmlns="http://www.w3.org/2000/svg" version="1.1" id="Layer_1" x="0" y="0" viewBox="0 0 22 19" xml:space="preserve">
  <g id="Icon-Exploration-and-Mocks" style="stroke:#b9411d">
    <g transform="translate(-673 -177)">
      <g id="Group-3" transform="translate(672 175)">
        <g transform="translate(2 9)">
          <circle id="Oval" class="st0"  cx="10" cy="8" r="1"/>
          <polygon id="Rectangle"  class="st0" points="9,0 11,0 10.7,6 9.3,6"/>
        </g>
        <path d="M20.6 21H3.4a2 2 0 01-2-2c0-.3.1-.7.3-1l8.6-15c.3-.5.7-.8 1.2-.9a2 2 0 011.5.2c.3.2.6.4.7.7l8.6 15c.5 1 .2 2.2-.7 2.7l-1 .3zM12 3c-.3 0-.7.2-.9.5l-8.6 15-.1.5c0 .6.4 1 1 1h17.1l.5-.1c.5-.3.6-.9.4-1.4l-8.6-15a.8.8 0 00-.4-.4L12 3z"/>
      </g>
    </g>
  </g>
</svg>